<?xml version="1.0" encoding="UTF-8"?>
<svg width="26px" height="27px" viewBox="0 0 26 27" version="1.1" xmlns="http://www.w3.org/2000/svg" xmlns:xlink="http://www.w3.org/1999/xlink">
    <!-- Generator: Sketch 47.1 (45422) - http://www.bohemiancoding.com/sketch -->
    <title>Group</title>
    <desc>Created with Sketch.</desc>
    <defs></defs>
    <g id="Page-1" stroke="none" stroke-width="1" fill="none" fill-rule="evenodd" stroke-linejoin="round">
        <g id="Artboard-Copy-13" transform="translate(-44.000000, -193.000000)" stroke="#FFFFFF">
            <g id="Group-4-Copy-2" transform="translate(29.000000, 177.000000)">
                <g id="Group-3" transform="translate(0.960000, 0.130000)">
                    <g id="dice-1" transform="translate(0.040000, 0.870000)">
                        <g id="Outline_Icons" transform="translate(18.000000, 20.000000)">
                            <g id="Group" transform="translate(-4.000000, -4.000000)">
                                <polygon id="Shape" stroke-linecap="round" points="13 9.17647059 0.764705882 4.58823529 0.764705882 19.8823529 13 25.2352941"></polygon>
                                <polygon id="Shape" stroke-linecap="round" points="13 9.17647059 25.2352941 4.58823529 25.2352941 19.8823529 13 25.2352941"></polygon>
                                <polyline id="Shape" stroke-linecap="round" points="25.2352941 4.59129412 13 0 0.764705882 4.59129412"></polyline>
                                <path d="M13.7647059,4.58823529 C13.7647059,5.01035294 13.4221176,5.35294118 13,5.35294118 L13,5.35294118 C12.5778824,5.35294118 12.2352941,5.01035294 12.2352941,4.58823529 L12.2352941,4.58823529 C12.2352941,4.16611765 12.5778824,3.82352941 13,3.82352941 L13,3.82352941 C13.4221176,3.82352941 13.7647059,4.16611765 13.7647059,4.58823529 L13.7647059,4.58823529 Z" id="Shape" fill="#FFFFFF"></path>
                                <path d="M5.35294118,11.4705882 C5.35294118,11.8927059 5.01035294,12.2352941 4.58823529,12.2352941 L4.58823529,12.2352941 C4.16611765,12.2352941 3.82352941,11.8927059 3.82352941,11.4705882 L3.82352941,11.4705882 C3.82352941,11.0484706 4.16611765,10.7058824 4.58823529,10.7058824 L4.58823529,10.7058824 C5.01035294,10.7058824 5.35294118,11.0484706 5.35294118,11.4705882 L5.35294118,11.4705882 Z" id="Shape" fill="#FFFFFF"></path>
                                <path d="M9.94117647,19.1176471 C9.94117647,19.5397647 9.59858824,19.8823529 9.17647059,19.8823529 L9.17647059,19.8823529 C8.75435294,19.8823529 8.41176471,19.5397647 8.41176471,19.1176471 L8.41176471,19.1176471 C8.41176471,18.6955294 8.75435294,18.3529412 9.17647059,18.3529412 L9.17647059,18.3529412 C9.59858824,18.3529412 9.94117647,18.6955294 9.94117647,19.1176471 L9.94117647,19.1176471 Z" id="Shape" fill="#FFFFFF"></path>
                                <path d="M17.5882353,19.1176471 C17.5882353,19.5397647 17.2456471,19.8823529 16.8235294,19.8823529 L16.8235294,19.8823529 C16.4014118,19.8823529 16.0588235,19.5397647 16.0588235,19.1176471 L16.0588235,19.1176471 C16.0588235,18.6955294 16.4014118,18.3529412 16.8235294,18.3529412 L16.8235294,18.3529412 C17.2456471,18.3529412 17.5882353,18.6955294 17.5882353,19.1176471 L17.5882353,19.1176471 Z" id="Shape" fill="#FFFFFF"></path>
                                <path d="M19.8823529,15.2941176 C19.8823529,15.7162353 19.5397647,16.0588235 19.1176471,16.0588235 L19.1176471,16.0588235 C18.6955294,16.0588235 18.3529412,15.7162353 18.3529412,15.2941176 L18.3529412,15.2941176 C18.3529412,14.872 18.6955294,14.5294118 19.1176471,14.5294118 L19.1176471,14.5294118 C19.5397647,14.5294118 19.8823529,14.872 19.8823529,15.2941176 L19.8823529,15.2941176 Z" id="Shape" fill="#FFFFFF"></path>
                                <path d="M22.1764706,11.4705882 C22.1764706,11.8927059 21.8338824,12.2352941 21.4117647,12.2352941 L21.4117647,12.2352941 C20.9896471,12.2352941 20.6470588,11.8927059 20.6470588,11.4705882 L20.6470588,11.4705882 C20.6470588,11.0484706 20.9896471,10.7058824 21.4117647,10.7058824 L21.4117647,10.7058824 C21.8338824,10.7058824 22.1764706,11.0484706 22.1764706,11.4705882 L22.1764706,11.4705882 Z" id="Shape" fill="#FFFFFF"></path>
                            </g>
                        </g>
                    </g>
                </g>
            </g>
        </g>
    </g>
</svg>